<?xml version="1.0" standalone="no"?>
<!DOCTYPE svg PUBLIC "-//W3C//DTD SVG 20010904//EN"
 "http://www.w3.org/TR/2001/REC-SVG-20010904/DTD/svg10.dtd">
<svg version="1.0" xmlns="http://www.w3.org/2000/svg"
 width="18.000000pt" height="16.000000pt" viewBox="0 0 18.000000 16.000000"
 preserveAspectRatio="xMidYMid meet">

<g transform="translate(0.000000,16.000000) scale(0.100000,-0.100000)"
fill="#000000" stroke="none">
<path d="M46 138 c-15 -21 -14 -24 2 -41 34 -34 78 9 46 44 -22 24 -29 24 -48
-3z m42 -20 c-2 -13 -10 -23 -18 -23 -8 0 -16 10 -18 23 -3 17 2 22 18 22 16
0 21 -5 18 -22z"/>
<path d="M118 58 c-10 -10 -13 -20 -7 -23 5 -4 7 -9 5 -13 -2 -4 6 -8 19 -8
16 -1 22 2 18 12 -3 8 0 14 6 14 6 0 11 5 11 11 0 5 -4 8 -9 4 -6 -3 -13 1
-18 8 -6 11 -11 10 -25 -5z"/>
<path d="M30 50 c-11 -11 -20 -28 -19 -37 0 -14 2 -13 9 4 5 12 22 29 37 37
20 11 23 15 11 16 -10 0 -27 -9 -38 -20z"/>
</g>
</svg>
